<svg xmlns="http://www.w3.org/2000/svg" viewBox="0 0 1600 400" font-family="monospace">
  <rect width="1600" height="400" fill="#0b0e14"/>
  <radialGradient id="g" cx="20%" cy="0%" r="90%">
    <stop offset="0%" stop-color="#e8a34c" stop-opacity=".10"/>
    <stop offset="60%" stop-color="#e8a34c" stop-opacity="0"/>
  </radialGradient>
  <rect width="1600" height="400" fill="url(#g)"/>
  <rect x="6" y="6" width="1588" height="388" rx="18" fill="none" stroke="#1e2430" stroke-width="4"/>
  <!-- the chalk X, big and half off-frame -->
  <g fill="#e8a34c" opacity=".92">
    <rect x="1210" y="40" width="52" height="52"/>
    <rect x="1262" y="92" width="52" height="52"/>
    <rect x="1314" y="144" width="52" height="52"/>
    <rect x="1366" y="196" width="52" height="52"/>
    <rect x="1418" y="248" width="52" height="52"/>
    <rect x="1470" y="300" width="52" height="52"/>
    <rect x="1470" y="40" width="52" height="52"/>
    <rect x="1418" y="92" width="52" height="52"/>
    <rect x="1366" y="144" width="52" height="52"/>
    <rect x="1314" y="196" width="52" height="52"/>
    <rect x="1262" y="248" width="52" height="52"/>
    <rect x="1210" y="300" width="52" height="52"/>
  </g>
  <rect x="1340" y="170" width="104" height="104" fill="#ffc46b"/>
  <text x="96" y="180" font-size="84" fill="#e8a34c">[ dead <tspan fill="#d7dde8" font-weight="bold">drop</tspan> ]</text>
  <text x="100" y="252" font-size="30" fill="#8a94a6">burn-after-reading secrets, sealed in a TEE</text>
  <text x="100" y="310" font-size="24" fill="#5a6375">AES-256-GCM in your browser · the key stays in your link</text>
  <text x="100" y="348" font-size="24" fill="#5a6375">read it, and it's gone</text>
</svg>
