<svg xmlns="http://www.w3.org/2000/svg" viewBox="0 0 96 96">
  <!-- back channel: two speech bubbles, both sealed. -->
  <rect width="96" height="96" rx="18" fill="#0b0e14"/>
  <rect x="1.5" y="1.5" width="93" height="93" rx="16.5" fill="none" stroke="#1e2430" stroke-width="3"/>
  <g fill="#e07ad0">
    <rect x="16" y="24" width="42" height="28" rx="8"/>
    <path d="M24 50 l0 12 12 -12 z"/>
  </g>
  <g fill="#f0a3e2">
    <rect x="44" y="46" width="36" height="24" rx="8"/>
    <path d="M70 68 l0 10 -10 -10 z"/>
  </g>
  <g fill="#0b0e14">
    <rect x="24" y="34" width="6" height="6" rx="1"/>
    <rect x="34" y="34" width="6" height="6" rx="1"/>
    <rect x="44" y="34" width="6" height="6" rx="1"/>
    <rect x="52" y="54" width="5" height="5" rx="1"/>
    <rect x="61" y="54" width="5" height="5" rx="1"/>
    <rect x="70" y="54" width="5" height="5" rx="1"/>
  </g>
</svg>
